<svg xmlns="http://www.w3.org/2000/svg" width="4096" height="4096" preserveAspectRatio="none" style="display: block;" version="1.1" viewBox="0 0 4096 4096"><path fill="rgb(255,255,255)" d="M0 0h4096v4096h-4096z"/><path fill="rgb(255,255,255)" d="M0 0h308.268l392.031 396.314a9739 9739 0 0 1 153.354 154.853c5.647 5.872 31.269 31.194 34.189 36.288-9.682 3.644-273.044 271.824-296.915 295.708-6.84-3.764-53.501-50.774-60.99-58.159l-208.89-209.775-213.437-213.512c-35.0092-34.987-73.9766-72.481-107.61-108.349z"/><path fill="rgb(237,237,245)" d="M0 288.408c42.5311 39.757 85.2467 84.611 126.654 126.155l271.432 273.602 126.924 126.459c11.397 11.318 59.816 57.97 65.917 68.539-6.84-3.764-53.501-50.774-60.99-58.159l-208.89-209.775-213.437-213.512c-35.0092-34.987-73.9766-72.481-107.61-108.349z"/><path fill="rgb(255,255,255)" d="M0 293.368c33.6334 35.868 72.6008 73.362 107.61 108.349l213.437 213.512 208.89 209.775c7.489 7.385 54.15 54.395 60.99 58.159-90.834 89.808-179.46 183.297-270.089 273.417-3.542 3.52-6.053 2.82-10.708 3.27l1.303 5.79c-101.147 104.95-211.8885 207.92-311.433 312.73z"/><path fill="rgb(237,237,245)" d="M308.268 0h5.076c40.047 37.8106 82.455 83.7424 122.193 123.498l329.619 331.573c38.863 38.931 86.19 91.085 125.161 126.592 68.49-67.386 136.133-135.632 202.903-204.722 15.42-15.954 51.96-50.06 64.2-65.379l-2.16-4.963c3.35-1.279 6.27.938 6.25.959 102.31-99.335 201.48-202.105 301.59-303.6614l2.91.0818c-1.95 8.9556-74.45 78.5365-86.84 91.1126l-333.92 337.648c-20.73 20.964-149.184 146.112-151.12 156.564-4.011.671-1.921.757-6.288-1.848-2.92-5.094-28.542-30.416-34.189-36.288a9739 9739 0 0 0-153.354-154.853z"/><path fill="rgb(237,237,245)" d="M590.927 883.163c23.871-23.884 287.233-292.064 296.915-295.708-2.628 10.636-69.712 74.576-81.642 86.486l-148.461 148.526c-18.325 18.24-41.745 39.218-58.33 59.282-2.618 3.167-1.353 5.605-.561 9.134-4.407.809-2.079.89-6.951-.727-19.9 16.375-45.575 44.509-64.077 63.588-27.541 28.237-55.316 56.246-83.325 84.016l-342.236 344.1c-15.1415 15.21-91.8709 94.78-102.259 98.89v-2.38c99.5445-104.81 210.286-207.78 311.433-312.73l-1.303-5.79c4.655-.45 7.166.25 10.708-3.27 90.629-90.12 179.255-183.609 270.089-273.417"/><path fill="rgb(237,237,245)" d="M3168.36 0h4.76c28.85 28.0453 58.94 59.9364 87.77 88.8055l226.28 226.3465c9.3-9.977 46.59-48.323 56.1-56.609 31.42-27.389 243.38-255.0935 255.24-254.8622-4.1 8.565-70.8 72.4439-82.2 84.0468l-226.29 230.2724c56.57 55.465 114.15 117.815 170.47 174.238 24.21 24.259 67.8 64.919 87.13 90.165l-.87.868c-40.89-35.042-84.33-82.776-121.87-121.968-149.2-155.736-308.74-304.635-456.52-461.303"/><path fill="rgb(69,187,254)" d="M1165.59 1463.3c10.44 4.06 313.24 316.1 343.9 347.2l1104.7 1118.61c-14.81 11.1-50.51 48.34-64.54 62.34q-66.105 65.715-131.1 132.54c-20.03 20.51-69.48 67.49-84.97 87.51-66.35-71.32-144.52-147.13-213.64-217.29l-364.94-370.77-1.74-1.09c-16.82 3.74-350.3 355.72-401.03 402.48-36.15 33.32-142.5 142.89-181.2 184.35-72.29-74.78-147.16-147.54-219.749-222.08-20.931-21.49-42.718-43.19-64.762-63.5 14.441-12.21 42.389-42.46 56.942-57.19l111.429-112.35 414.37-420.89c-192.97-196.87-387.23-392.48-582.744-586.83 29.376-26.96 65.197-65.92 94.176-95.35z"/><path fill="rgb(69,187,254)" d="M1734.27 891.214c9.09 3.355 546.9 545.176 592.74 590.856 60.39-63.73 127.56-129.44 189.59-192.19l386.45-392.383c36.51 35.207 74.08 74.91 109.83 111.243 56.46 57.29 113.23 114.27 170.3 170.94-16.84 13.13-46.23 43.9-62.52 60.21l-107.25 108c-135.43 136.7-272.86 281.49-410.28 415.41 29.39 26.67 68.17 68.45 96.64 97.47l182.78 185.97c99.44 102.16 199.98 203.24 301.6 303.23-22.39 18.02-82.86 81.91-104.08 103.89-57.34 59.42-119.89 120.05-175.11 180.82-66.5-71.97-147.64-151.16-216.73-221.18l-355.5-360.51-873.94-883.65c22.71-18.74 62.57-62.16 84.44-83.9 64.21-63.84 126.3-130.919 191.04-194.226"/><path fill="rgb(237,237,245)" d="M2008.78 4.7651c.3-.0735.59-.2549.89-.2207 8.55.9578 221.76 220.6136 248.14 247.1316 16.25 16.339 34.01 38.317 52.62 51.587 3.46 2.472 3.25 3.242 4.86 7.029l-6.07.098c-59.61-61.708-119.76-122.9-180.43-183.571-16.56-16.55-113.9-110.1569-120.01-122.0539"/><path fill="rgb(255,255,255)" d="M3448.89 3177.74c5.56 4.39 17.14 16.02 22.23 21.07l6.13-.84-2.61 4.02-2.79 3.75c-7.22-5.9-21.74-18.53-22.96-28"/></svg>